<svg width="34" height="34" viewBox="0 0 34 34" fill="none" xmlns="http://www.w3.org/2000/svg">
<mask id="mask0_3_210" style="mask-type:alpha" maskUnits="userSpaceOnUse" x="2" y="2" width="29" height="27">
<path fill-rule="evenodd" clip-rule="evenodd" d="M10.5 5.59999C10.5 4.05359 11.7536 2.79999 13.3 2.79999H14H19.6H20.3C21.8464 2.79999 23.1 4.05359 23.1 5.59999V7.69999H22.4C21.0953 7.69999 19.999 6.80765 19.6882 5.59999H13.9118C13.601 6.80765 12.5047 7.69999 11.2 7.69999H10.5V5.59999Z" fill="black"/>
<path fill-rule="evenodd" clip-rule="evenodd" d="M30.8 15.4H2.8V28.7H25.2C28.2928 28.7 30.8 26.1928 30.8 23.1V15.4ZM16.1 17.5C14.5536 17.5 13.3 18.7536 13.3 20.3V21H17.5C19.0464 21 20.3 19.7464 20.3 18.2V17.5H16.1Z" fill="url(#paint0_linear_3_210)"/>
<path d="M2.8 14.7C2.8 11.6072 5.30721 9.09998 8.4 9.09998H30.8V15.4H2.8V14.7Z" fill="black"/>
</mask>
<g mask="url(#mask0_3_210)">
<path d="M0 0H33.6V33.6H0V0Z" fill="#A381FF"/>
</g>
<defs>
<linearGradient id="paint0_linear_3_210" x1="29.4" y1="29.365" x2="4.16426" y2="14.2881" gradientUnits="userSpaceOnUse">
<stop stop-opacity="0.8"/>
<stop offset="1" stop-opacity="0.4"/>
</linearGradient>
</defs>
</svg>
