<svg width="34" height="34" viewBox="0 0 34 34" fill="none" xmlns="http://www.w3.org/2000/svg">
<mask id="mask0_3_146" style="mask-type:alpha" maskUnits="userSpaceOnUse" x="1" y="1" width="32" height="32">
<path fill-rule="evenodd" clip-rule="evenodd" d="M6.3 4.19998H11.2V28C11.2 30.3196 13.0804 32.2 15.4 32.2H10.5C8.18041 32.2 6.3 30.3196 6.3 28V4.19998Z" fill="url(#paint0_linear_3_146)"/>
<path opacity="0.7" fill-rule="evenodd" clip-rule="evenodd" d="M6.3 7V28C6.3 30.3196 8.18041 32.2 10.5 32.2H5.6C3.28041 32.2 1.4 30.3196 1.4 28V7H6.3Z" fill="url(#paint1_linear_3_146)"/>
<path fill-rule="evenodd" clip-rule="evenodd" d="M23.8 1.39999H11.2V28C11.2 30.3196 13.0804 32.2 15.4 32.2H32.2V9.79999H23.8V1.39999ZM16.1 16.1H28V16.8C28 18.3464 26.7464 19.6 25.2 19.6H16.1V16.1ZM23.8 23.1H16.1V26.6H21C22.5464 26.6 23.8 25.3464 23.8 23.8V23.1Z" fill="url(#paint2_linear_3_146)"/>
<path opacity="0.4" d="M23.8 1.39999V9.79999H32.2L23.8 1.39999Z" fill="black"/>
</mask>
<g mask="url(#mask0_3_146)">
<path d="M0 0H33.6V33.6H0V0Z" fill="#7CAEFF"/>
</g>
<defs>
<linearGradient id="paint0_linear_3_146" x1="11.942" y1="6.78998" x2="15.2615" y2="26.9774" gradientUnits="userSpaceOnUse">
<stop stop-opacity="0.6"/>
<stop offset="1" stop-opacity="0.25"/>
</linearGradient>
<linearGradient id="paint1_linear_3_146" x1="7.042" y1="9.331" x2="11.0596" y2="30.0545" gradientUnits="userSpaceOnUse">
<stop stop-opacity="0.3"/>
<stop offset="1" stop-opacity="0.15"/>
</linearGradient>
<linearGradient id="paint2_linear_3_146" x1="11.2" y1="1.39999" x2="39.8339" y2="24.4588" gradientUnits="userSpaceOnUse">
<stop/>
<stop offset="1" stop-opacity="0.7"/>
</linearGradient>
</defs>
</svg>
