<svg width="34" height="34" viewBox="0 0 34 34" fill="none" xmlns="http://www.w3.org/2000/svg">
<mask id="mask0_3_237" style="mask-type:alpha" maskUnits="userSpaceOnUse" x="0" y="0" width="34" height="34">
<path fill-rule="evenodd" clip-rule="evenodd" d="M18.5786 2.34569L16.8 0L15.0214 2.34569C13.3402 4.5629 10.5935 5.7006 7.83693 5.32158L4.92061 4.92061L5.32158 7.83693C5.7006 10.5935 4.5629 13.3402 2.34569 15.0214L0 16.8L2.34569 18.5786C4.5629 20.2598 5.7006 23.0065 5.32158 25.7631L4.92061 28.6794L7.83693 28.2784C10.5935 27.8994 13.3402 29.0371 15.0214 31.2543L16.8 33.6L18.5786 31.2543C20.2598 29.0371 23.0065 27.8994 25.7631 28.2784L28.6794 28.6794L28.2784 25.7631C27.8994 23.0065 29.0371 20.2598 31.2543 18.5786L33.6 16.8L31.2543 15.0214C29.0371 13.3402 27.8994 10.5935 28.2784 7.83693L28.6794 4.92061L25.7631 5.32158C23.0065 5.7006 20.2598 4.5629 18.5786 2.34569ZM12.1799 9.8C10.8655 9.8 9.79993 10.8656 9.79993 12.18C9.79993 13.4944 10.8655 14.56 12.1799 14.56C13.4944 14.56 14.5599 13.4944 14.5599 12.18C14.5599 10.8656 13.4944 9.8 12.1799 9.8ZM19.0398 21.42C19.0398 20.1056 20.1054 19.04 21.4198 19.04C22.7342 19.04 23.7998 20.1056 23.7998 21.42C23.7998 22.7344 22.7342 23.8 21.4198 23.8C20.1054 23.8 19.0398 22.7344 19.0398 21.42ZM12.316 18.9041C11.0039 20.2163 11.0039 22.3437 12.316 23.6559L21.3246 14.6473C22.6367 13.3352 22.6367 11.2077 21.3246 9.89558L12.316 18.9041Z" fill="url(#paint0_linear_3_237)"/>
</mask>
<g mask="url(#mask0_3_237)">
<rect width="33.6" height="33.6" fill="#58C082"/>
</g>
<defs>
<linearGradient id="paint0_linear_3_237" x1="4.01739" y1="18.887" x2="31.4371" y2="17.2875" gradientUnits="userSpaceOnUse">
<stop/>
<stop offset="1" stop-opacity="0.7"/>
</linearGradient>
</defs>
</svg>
