<svg width="34" height="34" viewBox="0 0 34 34" fill="none" xmlns="http://www.w3.org/2000/svg">
<mask id="mask0_3_180" style="mask-type:alpha" maskUnits="userSpaceOnUse" x="4" y="0" width="25" height="33">
<path opacity="0.5" d="M18.2 3.5H21.7V7H21C19.4536 7 18.2 5.7464 18.2 4.2V3.5Z" fill="black"/>
<path opacity="0.5" d="M11.9 3.5H15.4V7H14.7C13.1536 7 11.9 5.7464 11.9 4.2V3.5Z" fill="black"/>
<path d="M9.79999 0V0.7C9.79999 2.2464 11.0536 3.5 12.6 3.5H21C22.5464 3.5 23.8 2.2464 23.8 0.7V0H9.79999Z" fill="black"/>
<path d="M16.45 26.3187C15.8701 25.3142 16.2142 24.0299 17.2186 23.45L23.887 19.6L24.937 21.4187C25.5169 22.4231 25.1728 23.7074 24.1684 24.2873L17.5 28.1373L16.45 26.3187Z" fill="url(#paint0_linear_3_180)"/>
<path fill-rule="evenodd" clip-rule="evenodd" d="M24.5 32.2H6.29999C8.61958 32.2 10.5 30.3196 10.5 28V7H24.5C26.8196 7 28.7 8.8804 28.7 11.2V28C28.7 30.3196 26.8196 32.2 24.5 32.2ZM17.2186 23.45C16.2142 24.0299 15.8701 25.3142 16.45 26.3187L17.5 28.1373L24.1684 24.2873C25.1728 23.7074 25.5169 22.4231 24.937 21.4187L23.887 19.6L17.2186 23.45ZM14.2778 12.2631C13.9947 11.7966 14.3305 11.1999 14.8762 11.1999L19.8639 11.1999C20.4095 11.1999 20.7454 11.7966 20.4623 12.2631L17.9685 16.3729C17.6959 16.822 17.0441 16.822 16.7716 16.3729L14.2778 12.2631Z" fill="url(#paint1_linear_3_180)"/>
<path opacity="0.7" d="M4.89999 11.2C4.89999 8.8804 6.7804 7 9.09999 7H10.5V28C10.5 30.3196 8.61959 32.2 6.29999 32.2H4.89999V11.2Z" fill="url(#paint2_linear_3_180)"/>
</mask>
<g mask="url(#mask0_3_180)">
<path d="M0 0H33.6V33.6H0V0Z" fill="#0AC2AF"/>
</g>
<defs>
<linearGradient id="paint0_linear_3_180" x1="17.5" y1="28" x2="23.8" y2="19.6" gradientUnits="userSpaceOnUse">
<stop stop-opacity="0.2"/>
<stop offset="1" stop-opacity="0"/>
</linearGradient>
<linearGradient id="paint1_linear_3_180" x1="25.7133" y1="32.2" x2="25.7133" y2="7" gradientUnits="userSpaceOnUse">
<stop/>
<stop offset="1" stop-opacity="0.7"/>
</linearGradient>
<linearGradient id="paint2_linear_3_180" x1="7.69999" y1="7" x2="7.69999" y2="32.2" gradientUnits="userSpaceOnUse">
<stop stop-opacity="0.4"/>
<stop offset="1" stop-opacity="0.7"/>
</linearGradient>
</defs>
</svg>
