<svg preserveAspectRatio="none" width="100%" height="100%" overflow="visible" style="display: block;" viewBox="0 0 301.713 49.9355" fill="none" xmlns="http://www.w3.org/2000/svg">
<path id="Union" d="M151 0C173.94 8.62587e-05 193.794 12.1578 216.528 24.082C239.334 36.0437 265.272 47.9355 300.713 47.9355C301.265 47.9358 301.713 48.3836 301.713 48.9355C301.713 49.4877 301.265 49.9353 300.713 49.9355C264.779 49.9355 238.491 37.8597 215.6 25.8535C192.637 13.8099 173.321 2.00009 151 2C150.951 2 150.903 1.99511 150.855 1.98828C150.809 1.99496 150.761 1.99999 150.713 2C128.391 2 109.076 13.8099 86.1133 25.8535C63.2223 37.8598 36.9337 49.9355 1 49.9355C0.447836 49.9354 0 49.4877 0 48.9355C0.000193716 48.3835 0.447955 47.9357 1 47.9355C36.4407 47.9355 62.3785 36.0437 85.1846 24.082C107.919 12.1578 127.773 0 150.713 0C150.761 1.15721e-05 150.809 0.00407467 150.855 0.0107422C150.903 0.00392819 150.951 0 151 0Z" fill="#9299A2"/>
</svg>
